<mxfile host="Electron" modified="2024-04-09T16:17:29.481Z" agent="Mozilla/5.0 (X11; Linux x86_64) AppleWebKit/537.36 (KHTML, like Gecko) draw.io/24.1.0 Chrome/120.0.6099.109 Electron/28.1.0 Safari/537.36" etag="A0blmO-8tA4mGtpBP-Z8" version="24.1.0" type="device">
  <diagram name="Page-1" id="QBJ4fEdpHxf_YBq7i3tB">
    <mxGraphModel dx="1376" dy="963" grid="1" gridSize="10" guides="1" tooltips="1" connect="1" arrows="1" fold="1" page="1" pageScale="1" pageWidth="850" pageHeight="1100" math="0" shadow="0">
      <root>
        <mxCell id="0" />
        <mxCell id="1" parent="0" />
        <mxCell id="8vq4Dym6CmoTEIoGkgM0-1" value="" style="shape=umlLifeline;perimeter=lifelinePerimeter;whiteSpace=wrap;html=1;container=1;dropTarget=0;collapsible=0;recursiveResize=0;outlineConnect=0;portConstraint=eastwest;newEdgeStyle={&quot;curved&quot;:0,&quot;rounded&quot;:0};participant=umlEntity;" vertex="1" parent="1">
          <mxGeometry x="405" y="60" width="40" height="430" as="geometry" />
        </mxCell>
        <mxCell id="8vq4Dym6CmoTEIoGkgM0-2" value="" style="shape=umlLifeline;perimeter=lifelinePerimeter;whiteSpace=wrap;html=1;container=1;dropTarget=0;collapsible=0;recursiveResize=0;outlineConnect=0;portConstraint=eastwest;newEdgeStyle={&quot;curved&quot;:0,&quot;rounded&quot;:0};participant=umlEntity;" vertex="1" parent="1">
          <mxGeometry x="650" y="60" width="40" height="300" as="geometry" />
        </mxCell>
        <mxCell id="8vq4Dym6CmoTEIoGkgM0-12" value="" style="html=1;points=[[0,0,0,0,5],[0,1,0,0,-5],[1,0,0,0,5],[1,1,0,0,-5]];perimeter=orthogonalPerimeter;outlineConnect=0;targetShapes=umlLifeline;portConstraint=eastwest;newEdgeStyle={&quot;curved&quot;:0,&quot;rounded&quot;:0};" vertex="1" parent="8vq4Dym6CmoTEIoGkgM0-2">
          <mxGeometry x="15" y="160" width="10" height="40" as="geometry" />
        </mxCell>
        <mxCell id="8vq4Dym6CmoTEIoGkgM0-13" value="Verify ID and active&amp;nbsp;&lt;div&gt;deliivery state exist&lt;/div&gt;" style="html=1;align=left;spacingLeft=2;endArrow=block;rounded=0;edgeStyle=orthogonalEdgeStyle;curved=0;rounded=0;" edge="1" target="8vq4Dym6CmoTEIoGkgM0-12" parent="8vq4Dym6CmoTEIoGkgM0-2" source="8vq4Dym6CmoTEIoGkgM0-2">
          <mxGeometry x="0.1701" y="-14" relative="1" as="geometry">
            <mxPoint x="-240" y="400" as="sourcePoint" />
            <Array as="points">
              <mxPoint x="50" y="220" />
              <mxPoint x="50" y="180" />
            </Array>
            <mxPoint x="-4" y="-10" as="offset" />
          </mxGeometry>
        </mxCell>
        <mxCell id="8vq4Dym6CmoTEIoGkgM0-3" value="&lt;font style=&quot;font-size: 14px;&quot;&gt;Web App&lt;/font&gt;" style="text;html=1;align=center;verticalAlign=middle;resizable=0;points=[];autosize=1;strokeColor=none;fillColor=none;" vertex="1" parent="1">
          <mxGeometry x="385" y="30" width="80" height="30" as="geometry" />
        </mxCell>
        <mxCell id="8vq4Dym6CmoTEIoGkgM0-4" value="&lt;span style=&quot;font-size: 14px;&quot;&gt;Package Service&lt;/span&gt;" style="text;html=1;align=center;verticalAlign=middle;resizable=0;points=[];autosize=1;strokeColor=none;fillColor=none;" vertex="1" parent="1">
          <mxGeometry x="605" y="30" width="130" height="30" as="geometry" />
        </mxCell>
        <mxCell id="8vq4Dym6CmoTEIoGkgM0-10" value="" style="endArrow=open;endFill=1;endSize=12;html=1;rounded=0;" edge="1" parent="1" target="8vq4Dym6CmoTEIoGkgM0-1">
          <mxGeometry width="160" relative="1" as="geometry">
            <mxPoint x="180" y="149.5" as="sourcePoint" />
            <mxPoint x="340" y="149.5" as="targetPoint" />
          </mxGeometry>
        </mxCell>
        <mxCell id="8vq4Dym6CmoTEIoGkgM0-11" value="" style="endArrow=open;endFill=1;endSize=12;html=1;rounded=0;" edge="1" parent="1">
          <mxGeometry width="160" relative="1" as="geometry">
            <mxPoint x="425" y="190" as="sourcePoint" />
            <mxPoint x="670" y="190" as="targetPoint" />
          </mxGeometry>
        </mxCell>
        <mxCell id="8vq4Dym6CmoTEIoGkgM0-14" value="Return packagee web" style="html=1;verticalAlign=bottom;endArrow=open;dashed=1;endSize=8;curved=0;rounded=0;" edge="1" parent="1" target="8vq4Dym6CmoTEIoGkgM0-1">
          <mxGeometry x="0.002" relative="1" as="geometry">
            <mxPoint x="670" y="320" as="sourcePoint" />
            <mxPoint x="590" y="320" as="targetPoint" />
            <mxPoint as="offset" />
          </mxGeometry>
        </mxCell>
        <mxCell id="8vq4Dym6CmoTEIoGkgM0-20" value="" style="shape=umlLifeline;perimeter=lifelinePerimeter;whiteSpace=wrap;html=1;container=1;dropTarget=0;collapsible=0;recursiveResize=0;outlineConnect=0;portConstraint=eastwest;newEdgeStyle={&quot;curved&quot;:0,&quot;rounded&quot;:0};participant=umlActor;" vertex="1" parent="1">
          <mxGeometry x="160" y="120" width="20" height="50" as="geometry" />
        </mxCell>
        <mxCell id="8vq4Dym6CmoTEIoGkgM0-21" value="&lt;span style=&quot;font-size: 14px;&quot;&gt;Customer&lt;/span&gt;" style="text;html=1;align=center;verticalAlign=middle;resizable=0;points=[];autosize=1;strokeColor=none;fillColor=none;" vertex="1" parent="1">
          <mxGeometry x="130" y="170" width="80" height="30" as="geometry" />
        </mxCell>
        <mxCell id="8vq4Dym6CmoTEIoGkgM0-25" value="Enter Package ID&amp;nbsp;&lt;div&gt;and click on Track&lt;/div&gt;" style="text;html=1;align=center;verticalAlign=middle;resizable=0;points=[];autosize=1;strokeColor=none;fillColor=none;" vertex="1" parent="1">
          <mxGeometry x="210" y="103" width="120" height="40" as="geometry" />
        </mxCell>
        <mxCell id="8vq4Dym6CmoTEIoGkgM0-26" value="Send package ID" style="text;html=1;align=center;verticalAlign=middle;resizable=0;points=[];autosize=1;strokeColor=none;fillColor=none;" vertex="1" parent="1">
          <mxGeometry x="490" y="158" width="120" height="30" as="geometry" />
        </mxCell>
        <mxCell id="8vq4Dym6CmoTEIoGkgM0-28" value="" style="shape=umlLifeline;perimeter=lifelinePerimeter;whiteSpace=wrap;html=1;container=1;dropTarget=0;collapsible=0;recursiveResize=0;outlineConnect=0;portConstraint=eastwest;newEdgeStyle={&quot;curved&quot;:0,&quot;rounded&quot;:0};participant=umlEntity;" vertex="1" parent="1">
          <mxGeometry x="405" y="60" width="40" height="590" as="geometry" />
        </mxCell>
        <mxCell id="8vq4Dym6CmoTEIoGkgM0-29" value="" style="shape=umlLifeline;perimeter=lifelinePerimeter;whiteSpace=wrap;html=1;container=1;dropTarget=0;collapsible=0;recursiveResize=0;outlineConnect=0;portConstraint=eastwest;newEdgeStyle={&quot;curved&quot;:0,&quot;rounded&quot;:0};participant=umlEntity;" vertex="1" parent="1">
          <mxGeometry x="650" y="60" width="40" height="590" as="geometry" />
        </mxCell>
        <mxCell id="8vq4Dym6CmoTEIoGkgM0-30" value="" style="html=1;points=[[0,0,0,0,5],[0,1,0,0,-5],[1,0,0,0,5],[1,1,0,0,-5]];perimeter=orthogonalPerimeter;outlineConnect=0;targetShapes=umlLifeline;portConstraint=eastwest;newEdgeStyle={&quot;curved&quot;:0,&quot;rounded&quot;:0};" vertex="1" parent="8vq4Dym6CmoTEIoGkgM0-29">
          <mxGeometry x="15" y="160" width="10" height="40" as="geometry" />
        </mxCell>
        <mxCell id="8vq4Dym6CmoTEIoGkgM0-31" value="Verify ID and active&amp;nbsp;&lt;div&gt;deliivery ID is set&lt;/div&gt;" style="html=1;align=left;spacingLeft=2;endArrow=block;rounded=0;edgeStyle=orthogonalEdgeStyle;curved=0;rounded=0;" edge="1" parent="8vq4Dym6CmoTEIoGkgM0-29" source="8vq4Dym6CmoTEIoGkgM0-29" target="8vq4Dym6CmoTEIoGkgM0-30">
          <mxGeometry x="0.1701" y="-14" relative="1" as="geometry">
            <mxPoint x="-240" y="400" as="sourcePoint" />
            <Array as="points">
              <mxPoint x="50" y="220" />
              <mxPoint x="50" y="180" />
            </Array>
            <mxPoint x="-4" y="-10" as="offset" />
          </mxGeometry>
        </mxCell>
        <mxCell id="8vq4Dym6CmoTEIoGkgM0-32" value="&lt;font style=&quot;font-size: 14px;&quot;&gt;Web App&lt;/font&gt;" style="text;html=1;align=center;verticalAlign=middle;resizable=0;points=[];autosize=1;strokeColor=none;fillColor=none;" vertex="1" parent="1">
          <mxGeometry x="385" y="30" width="80" height="30" as="geometry" />
        </mxCell>
        <mxCell id="8vq4Dym6CmoTEIoGkgM0-34" value="" style="endArrow=open;endFill=1;endSize=12;html=1;rounded=0;" edge="1" parent="1" target="8vq4Dym6CmoTEIoGkgM0-28">
          <mxGeometry width="160" relative="1" as="geometry">
            <mxPoint x="180" y="149.5" as="sourcePoint" />
            <mxPoint x="340" y="149.5" as="targetPoint" />
          </mxGeometry>
        </mxCell>
        <mxCell id="8vq4Dym6CmoTEIoGkgM0-35" value="" style="endArrow=open;endFill=1;endSize=12;html=1;rounded=0;" edge="1" parent="1">
          <mxGeometry width="160" relative="1" as="geometry">
            <mxPoint x="425" y="394.5" as="sourcePoint" />
            <mxPoint x="1009.5" y="394.5" as="targetPoint" />
          </mxGeometry>
        </mxCell>
        <mxCell id="8vq4Dym6CmoTEIoGkgM0-36" value="" style="html=1;verticalAlign=bottom;endArrow=open;dashed=1;endSize=8;curved=0;rounded=0;" edge="1" parent="1" target="8vq4Dym6CmoTEIoGkgM0-28">
          <mxGeometry relative="1" as="geometry">
            <mxPoint x="670" y="320" as="sourcePoint" />
            <mxPoint x="590" y="320" as="targetPoint" />
          </mxGeometry>
        </mxCell>
        <mxCell id="8vq4Dym6CmoTEIoGkgM0-37" value="" style="shape=umlLifeline;perimeter=lifelinePerimeter;whiteSpace=wrap;html=1;container=1;dropTarget=0;collapsible=0;recursiveResize=0;outlineConnect=0;portConstraint=eastwest;newEdgeStyle={&quot;curved&quot;:0,&quot;rounded&quot;:0};participant=umlActor;" vertex="1" parent="1">
          <mxGeometry x="160" y="120" width="20" height="50" as="geometry" />
        </mxCell>
        <mxCell id="8vq4Dym6CmoTEIoGkgM0-38" value="&lt;span style=&quot;font-size: 14px;&quot;&gt;Customer&lt;/span&gt;" style="text;html=1;align=center;verticalAlign=middle;resizable=0;points=[];autosize=1;strokeColor=none;fillColor=none;" vertex="1" parent="1">
          <mxGeometry x="130" y="170" width="80" height="30" as="geometry" />
        </mxCell>
        <mxCell id="8vq4Dym6CmoTEIoGkgM0-39" value="Events/Socket.io" style="shape=umlLifeline;perimeter=lifelinePerimeter;whiteSpace=wrap;html=1;container=1;dropTarget=0;collapsible=0;recursiveResize=0;outlineConnect=0;portConstraint=eastwest;newEdgeStyle={&quot;curved&quot;:0,&quot;rounded&quot;:0};size=20;" vertex="1" parent="1">
          <mxGeometry x="1260" y="40" width="100" height="610" as="geometry" />
        </mxCell>
        <mxCell id="8vq4Dym6CmoTEIoGkgM0-40" value="" style="endArrow=open;endFill=1;endSize=12;html=1;rounded=0;" edge="1" parent="1">
          <mxGeometry width="160" relative="1" as="geometry">
            <mxPoint x="430" y="560" as="sourcePoint" />
            <mxPoint x="1309.5" y="560" as="targetPoint" />
          </mxGeometry>
        </mxCell>
        <mxCell id="8vq4Dym6CmoTEIoGkgM0-41" value="Listen to delvery update events" style="text;html=1;align=center;verticalAlign=middle;resizable=0;points=[];autosize=1;strokeColor=none;fillColor=none;" vertex="1" parent="1">
          <mxGeometry x="770" y="530" width="190" height="30" as="geometry" />
        </mxCell>
        <mxCell id="8vq4Dym6CmoTEIoGkgM0-42" value="Enter Package ID&amp;nbsp;&lt;div&gt;and click on Track&lt;/div&gt;" style="text;html=1;align=center;verticalAlign=middle;resizable=0;points=[];autosize=1;strokeColor=none;fillColor=none;" vertex="1" parent="1">
          <mxGeometry x="210" y="103" width="120" height="40" as="geometry" />
        </mxCell>
        <mxCell id="8vq4Dym6CmoTEIoGkgM0-43" value="Send Delivery ID if exist&lt;div&gt;&lt;br&gt;&lt;/div&gt;" style="text;html=1;align=center;verticalAlign=middle;resizable=0;points=[];autosize=1;strokeColor=none;fillColor=none;" vertex="1" parent="1">
          <mxGeometry x="485" y="370" width="150" height="40" as="geometry" />
        </mxCell>
        <mxCell id="8vq4Dym6CmoTEIoGkgM0-44" value="Return delivery_updated event" style="html=1;verticalAlign=bottom;endArrow=open;dashed=1;endSize=8;curved=0;rounded=0;entryX=0.475;entryY=0.94;entryDx=0;entryDy=0;entryPerimeter=0;" edge="1" parent="1" target="8vq4Dym6CmoTEIoGkgM0-28" source="8vq4Dym6CmoTEIoGkgM0-39">
          <mxGeometry relative="1" as="geometry">
            <mxPoint x="1300" y="600" as="sourcePoint" />
            <mxPoint x="435" y="470" as="targetPoint" />
          </mxGeometry>
        </mxCell>
        <mxCell id="8vq4Dym6CmoTEIoGkgM0-45" value="" style="shape=umlLifeline;perimeter=lifelinePerimeter;whiteSpace=wrap;html=1;container=1;dropTarget=0;collapsible=0;recursiveResize=0;outlineConnect=0;portConstraint=eastwest;newEdgeStyle={&quot;curved&quot;:0,&quot;rounded&quot;:0};participant=umlEntity;" vertex="1" parent="1">
          <mxGeometry x="990" y="68" width="40" height="602" as="geometry" />
        </mxCell>
        <mxCell id="8vq4Dym6CmoTEIoGkgM0-53" value="" style="html=1;points=[[0,0,0,0,5],[0,1,0,0,-5],[1,0,0,0,5],[1,1,0,0,-5]];perimeter=orthogonalPerimeter;outlineConnect=0;targetShapes=umlLifeline;portConstraint=eastwest;newEdgeStyle={&quot;curved&quot;:0,&quot;rounded&quot;:0};" vertex="1" parent="8vq4Dym6CmoTEIoGkgM0-45">
          <mxGeometry x="15" y="347" width="10" height="40" as="geometry" />
        </mxCell>
        <mxCell id="8vq4Dym6CmoTEIoGkgM0-46" value="&lt;span style=&quot;font-size: 14px;&quot;&gt;Delivery Service&lt;/span&gt;" style="text;html=1;align=center;verticalAlign=middle;resizable=0;points=[];autosize=1;strokeColor=none;fillColor=none;" vertex="1" parent="1">
          <mxGeometry x="950" y="20" width="120" height="30" as="geometry" />
        </mxCell>
        <mxCell id="8vq4Dym6CmoTEIoGkgM0-48" value="Return delivery if&amp;nbsp; exist" style="html=1;verticalAlign=bottom;endArrow=open;dashed=1;endSize=8;curved=0;rounded=0;" edge="1" parent="1" source="8vq4Dym6CmoTEIoGkgM0-45">
          <mxGeometry relative="1" as="geometry">
            <mxPoint x="925" y="480" as="sourcePoint" />
            <mxPoint x="680" y="480" as="targetPoint" />
          </mxGeometry>
        </mxCell>
        <mxCell id="8vq4Dym6CmoTEIoGkgM0-52" value="VerifyDelivery ID&lt;div&gt;and return to Customer&lt;/div&gt;" style="html=1;align=left;spacingLeft=2;endArrow=block;rounded=0;edgeStyle=orthogonalEdgeStyle;curved=0;rounded=0;" edge="1" parent="1">
          <mxGeometry x="0.1701" y="-14" relative="1" as="geometry">
            <mxPoint x="1010" y="470" as="sourcePoint" />
            <Array as="points">
              <mxPoint x="1040" y="470" />
              <mxPoint x="1040" y="430" />
            </Array>
            <mxPoint x="-4" y="-10" as="offset" />
            <mxPoint x="1015" y="430" as="targetPoint" />
          </mxGeometry>
        </mxCell>
        <mxCell id="8vq4Dym6CmoTEIoGkgM0-54" value="" style="shape=umlLifeline;perimeter=lifelinePerimeter;whiteSpace=wrap;html=1;container=1;dropTarget=0;collapsible=0;recursiveResize=0;outlineConnect=0;portConstraint=eastwest;newEdgeStyle={&quot;curved&quot;:0,&quot;rounded&quot;:0};participant=umlEntity;" vertex="1" parent="1">
          <mxGeometry x="415" y="970" width="40" height="430" as="geometry" />
        </mxCell>
        <mxCell id="8vq4Dym6CmoTEIoGkgM0-55" value="" style="shape=umlLifeline;perimeter=lifelinePerimeter;whiteSpace=wrap;html=1;container=1;dropTarget=0;collapsible=0;recursiveResize=0;outlineConnect=0;portConstraint=eastwest;newEdgeStyle={&quot;curved&quot;:0,&quot;rounded&quot;:0};participant=umlEntity;" vertex="1" parent="1">
          <mxGeometry x="660" y="970" width="40" height="300" as="geometry" />
        </mxCell>
        <mxCell id="8vq4Dym6CmoTEIoGkgM0-56" value="" style="html=1;points=[[0,0,0,0,5],[0,1,0,0,-5],[1,0,0,0,5],[1,1,0,0,-5]];perimeter=orthogonalPerimeter;outlineConnect=0;targetShapes=umlLifeline;portConstraint=eastwest;newEdgeStyle={&quot;curved&quot;:0,&quot;rounded&quot;:0};" vertex="1" parent="8vq4Dym6CmoTEIoGkgM0-55">
          <mxGeometry x="15" y="160" width="10" height="40" as="geometry" />
        </mxCell>
        <mxCell id="8vq4Dym6CmoTEIoGkgM0-57" value="Verify ID and active&amp;nbsp;&lt;div&gt;deliivery state exist&lt;/div&gt;" style="html=1;align=left;spacingLeft=2;endArrow=block;rounded=0;edgeStyle=orthogonalEdgeStyle;curved=0;rounded=0;" edge="1" parent="8vq4Dym6CmoTEIoGkgM0-55" source="8vq4Dym6CmoTEIoGkgM0-55" target="8vq4Dym6CmoTEIoGkgM0-56">
          <mxGeometry x="0.1701" y="-14" relative="1" as="geometry">
            <mxPoint x="-240" y="400" as="sourcePoint" />
            <Array as="points">
              <mxPoint x="50" y="220" />
              <mxPoint x="50" y="180" />
            </Array>
            <mxPoint x="-4" y="-10" as="offset" />
          </mxGeometry>
        </mxCell>
        <mxCell id="8vq4Dym6CmoTEIoGkgM0-58" value="&lt;font style=&quot;font-size: 14px;&quot;&gt;Web App&lt;/font&gt;" style="text;html=1;align=center;verticalAlign=middle;resizable=0;points=[];autosize=1;strokeColor=none;fillColor=none;" vertex="1" parent="1">
          <mxGeometry x="395" y="940" width="80" height="30" as="geometry" />
        </mxCell>
        <mxCell id="8vq4Dym6CmoTEIoGkgM0-59" value="&lt;span style=&quot;font-size: 14px;&quot;&gt;Delivery Service&lt;/span&gt;" style="text;html=1;align=center;verticalAlign=middle;resizable=0;points=[];autosize=1;strokeColor=none;fillColor=none;" vertex="1" parent="1">
          <mxGeometry x="620" y="940" width="120" height="30" as="geometry" />
        </mxCell>
        <mxCell id="8vq4Dym6CmoTEIoGkgM0-60" value="" style="endArrow=open;endFill=1;endSize=12;html=1;rounded=0;" edge="1" parent="1" target="8vq4Dym6CmoTEIoGkgM0-54">
          <mxGeometry width="160" relative="1" as="geometry">
            <mxPoint x="190" y="1059.5" as="sourcePoint" />
            <mxPoint x="350" y="1059.5" as="targetPoint" />
          </mxGeometry>
        </mxCell>
        <mxCell id="8vq4Dym6CmoTEIoGkgM0-61" value="" style="endArrow=open;endFill=1;endSize=12;html=1;rounded=0;" edge="1" parent="1">
          <mxGeometry width="160" relative="1" as="geometry">
            <mxPoint x="435" y="1100" as="sourcePoint" />
            <mxPoint x="680" y="1100" as="targetPoint" />
          </mxGeometry>
        </mxCell>
        <mxCell id="8vq4Dym6CmoTEIoGkgM0-63" value="" style="shape=umlLifeline;perimeter=lifelinePerimeter;whiteSpace=wrap;html=1;container=1;dropTarget=0;collapsible=0;recursiveResize=0;outlineConnect=0;portConstraint=eastwest;newEdgeStyle={&quot;curved&quot;:0,&quot;rounded&quot;:0};participant=umlActor;" vertex="1" parent="1">
          <mxGeometry x="170" y="1030" width="20" height="50" as="geometry" />
        </mxCell>
        <mxCell id="8vq4Dym6CmoTEIoGkgM0-64" value="&lt;span style=&quot;font-size: 14px;&quot;&gt;Driver&lt;/span&gt;&lt;div&gt;&lt;span style=&quot;font-size: 14px;&quot;&gt;&lt;br&gt;&lt;/span&gt;&lt;/div&gt;" style="text;html=1;align=center;verticalAlign=middle;resizable=0;points=[];autosize=1;strokeColor=none;fillColor=none;" vertex="1" parent="1">
          <mxGeometry x="150" y="1070" width="60" height="50" as="geometry" />
        </mxCell>
        <mxCell id="8vq4Dym6CmoTEIoGkgM0-65" value="EnterDelivery ID&amp;nbsp;&lt;div&gt;and click on submit&lt;/div&gt;" style="text;html=1;align=center;verticalAlign=middle;resizable=0;points=[];autosize=1;strokeColor=none;fillColor=none;" vertex="1" parent="1">
          <mxGeometry x="215" y="1013" width="130" height="40" as="geometry" />
        </mxCell>
        <mxCell id="8vq4Dym6CmoTEIoGkgM0-66" value="Send Delivery ID" style="text;html=1;align=center;verticalAlign=middle;resizable=0;points=[];autosize=1;strokeColor=none;fillColor=none;" vertex="1" parent="1">
          <mxGeometry x="505" y="1068" width="110" height="30" as="geometry" />
        </mxCell>
        <mxCell id="8vq4Dym6CmoTEIoGkgM0-67" value="" style="shape=umlLifeline;perimeter=lifelinePerimeter;whiteSpace=wrap;html=1;container=1;dropTarget=0;collapsible=0;recursiveResize=0;outlineConnect=0;portConstraint=eastwest;newEdgeStyle={&quot;curved&quot;:0,&quot;rounded&quot;:0};participant=umlEntity;" vertex="1" parent="1">
          <mxGeometry x="415" y="970" width="40" height="670" as="geometry" />
        </mxCell>
        <mxCell id="8vq4Dym6CmoTEIoGkgM0-68" value="" style="shape=umlLifeline;perimeter=lifelinePerimeter;whiteSpace=wrap;html=1;container=1;dropTarget=0;collapsible=0;recursiveResize=0;outlineConnect=0;portConstraint=eastwest;newEdgeStyle={&quot;curved&quot;:0,&quot;rounded&quot;:0};participant=umlEntity;" vertex="1" parent="1">
          <mxGeometry x="660" y="970" width="40" height="660" as="geometry" />
        </mxCell>
        <mxCell id="8vq4Dym6CmoTEIoGkgM0-69" value="" style="html=1;points=[[0,0,0,0,5],[0,1,0,0,-5],[1,0,0,0,5],[1,1,0,0,-5]];perimeter=orthogonalPerimeter;outlineConnect=0;targetShapes=umlLifeline;portConstraint=eastwest;newEdgeStyle={&quot;curved&quot;:0,&quot;rounded&quot;:0};" vertex="1" parent="8vq4Dym6CmoTEIoGkgM0-68">
          <mxGeometry x="15" y="160" width="10" height="40" as="geometry" />
        </mxCell>
        <mxCell id="8vq4Dym6CmoTEIoGkgM0-70" value="Verify ID and active&amp;nbsp;&lt;div&gt;deliivery ID is set&lt;/div&gt;" style="html=1;align=left;spacingLeft=2;endArrow=block;rounded=0;edgeStyle=orthogonalEdgeStyle;curved=0;rounded=0;" edge="1" parent="8vq4Dym6CmoTEIoGkgM0-68" source="8vq4Dym6CmoTEIoGkgM0-68" target="8vq4Dym6CmoTEIoGkgM0-69">
          <mxGeometry x="0.1701" y="-14" relative="1" as="geometry">
            <mxPoint x="-240" y="400" as="sourcePoint" />
            <Array as="points">
              <mxPoint x="50" y="220" />
              <mxPoint x="50" y="180" />
            </Array>
            <mxPoint x="-4" y="-10" as="offset" />
          </mxGeometry>
        </mxCell>
        <mxCell id="8vq4Dym6CmoTEIoGkgM0-71" value="&lt;font style=&quot;font-size: 14px;&quot;&gt;Web App&lt;/font&gt;" style="text;html=1;align=center;verticalAlign=middle;resizable=0;points=[];autosize=1;strokeColor=none;fillColor=none;" vertex="1" parent="1">
          <mxGeometry x="395" y="940" width="80" height="30" as="geometry" />
        </mxCell>
        <mxCell id="8vq4Dym6CmoTEIoGkgM0-72" value="&lt;span style=&quot;font-size: 14px;&quot;&gt;Delivery Service&lt;/span&gt;" style="text;html=1;align=center;verticalAlign=middle;resizable=0;points=[];autosize=1;strokeColor=none;fillColor=none;" vertex="1" parent="1">
          <mxGeometry x="620" y="940" width="120" height="30" as="geometry" />
        </mxCell>
        <mxCell id="8vq4Dym6CmoTEIoGkgM0-73" value="" style="endArrow=open;endFill=1;endSize=12;html=1;rounded=0;" edge="1" parent="1" target="8vq4Dym6CmoTEIoGkgM0-67">
          <mxGeometry width="160" relative="1" as="geometry">
            <mxPoint x="190" y="1059.5" as="sourcePoint" />
            <mxPoint x="350" y="1059.5" as="targetPoint" />
          </mxGeometry>
        </mxCell>
        <mxCell id="8vq4Dym6CmoTEIoGkgM0-75" value="" style="html=1;verticalAlign=bottom;endArrow=open;dashed=1;endSize=8;curved=0;rounded=0;" edge="1" parent="1">
          <mxGeometry relative="1" as="geometry">
            <mxPoint x="682.75" y="1420" as="sourcePoint" />
            <mxPoint x="437.25" y="1420" as="targetPoint" />
          </mxGeometry>
        </mxCell>
        <mxCell id="8vq4Dym6CmoTEIoGkgM0-76" value="" style="shape=umlLifeline;perimeter=lifelinePerimeter;whiteSpace=wrap;html=1;container=1;dropTarget=0;collapsible=0;recursiveResize=0;outlineConnect=0;portConstraint=eastwest;newEdgeStyle={&quot;curved&quot;:0,&quot;rounded&quot;:0};participant=umlActor;" vertex="1" parent="1">
          <mxGeometry x="170" y="1030" width="20" height="50" as="geometry" />
        </mxCell>
        <mxCell id="8vq4Dym6CmoTEIoGkgM0-78" value="Message Broker" style="shape=umlLifeline;perimeter=lifelinePerimeter;whiteSpace=wrap;html=1;container=1;dropTarget=0;collapsible=0;recursiveResize=0;outlineConnect=0;portConstraint=eastwest;newEdgeStyle={&quot;curved&quot;:0,&quot;rounded&quot;:0};size=40;" vertex="1" parent="1">
          <mxGeometry x="1280" y="960" width="100" height="600" as="geometry" />
        </mxCell>
        <mxCell id="8vq4Dym6CmoTEIoGkgM0-84" value="" style="shape=umlLifeline;perimeter=lifelinePerimeter;whiteSpace=wrap;html=1;container=1;dropTarget=0;collapsible=0;recursiveResize=0;outlineConnect=0;portConstraint=eastwest;newEdgeStyle={&quot;curved&quot;:0,&quot;rounded&quot;:0};participant=umlEntity;" vertex="1" parent="1">
          <mxGeometry x="1000" y="978" width="40" height="652" as="geometry" />
        </mxCell>
        <mxCell id="8vq4Dym6CmoTEIoGkgM0-86" value="&lt;span style=&quot;font-size: 14px;&quot;&gt;Package Service&lt;/span&gt;" style="text;html=1;align=center;verticalAlign=middle;resizable=0;points=[];autosize=1;strokeColor=none;fillColor=none;" vertex="1" parent="1">
          <mxGeometry x="955" y="930" width="130" height="30" as="geometry" />
        </mxCell>
        <mxCell id="8vq4Dym6CmoTEIoGkgM0-89" value="" style="endArrow=open;endFill=1;endSize=12;html=1;rounded=0;" edge="1" parent="1">
          <mxGeometry width="160" relative="1" as="geometry">
            <mxPoint x="680" y="1198" as="sourcePoint" />
            <mxPoint x="1329.5" y="1198" as="targetPoint" />
          </mxGeometry>
        </mxCell>
        <mxCell id="8vq4Dym6CmoTEIoGkgM0-90" value="Subscribe to message broker&amp;nbsp;&lt;div&gt;and to publish request&lt;/div&gt;" style="text;html=1;align=center;verticalAlign=middle;resizable=0;points=[];autosize=1;strokeColor=none;fillColor=none;" vertex="1" parent="1">
          <mxGeometry x="825" y="1165" width="180" height="40" as="geometry" />
        </mxCell>
        <mxCell id="8vq4Dym6CmoTEIoGkgM0-93" value="Retrun package to delivery service&lt;div&gt;&lt;br&gt;&lt;/div&gt;" style="html=1;verticalAlign=bottom;endArrow=open;dashed=1;endSize=8;curved=0;rounded=0;" edge="1" parent="1">
          <mxGeometry x="0.2918" y="10" relative="1" as="geometry">
            <mxPoint x="1329.5" y="1350" as="sourcePoint" />
            <mxPoint x="680" y="1350" as="targetPoint" />
            <mxPoint x="1" as="offset" />
          </mxGeometry>
        </mxCell>
        <mxCell id="8vq4Dym6CmoTEIoGkgM0-96" value="Return Delivery to customer" style="text;html=1;align=center;verticalAlign=middle;resizable=0;points=[];autosize=1;strokeColor=none;fillColor=none;" vertex="1" parent="1">
          <mxGeometry x="455" y="1398" width="170" height="30" as="geometry" />
        </mxCell>
        <mxCell id="8vq4Dym6CmoTEIoGkgM0-98" value="Subscribe to message&lt;div&gt;Broker and publish package&lt;/div&gt;" style="endArrow=open;endSize=12;dashed=1;html=1;rounded=0;" edge="1" parent="1" target="8vq4Dym6CmoTEIoGkgM0-78">
          <mxGeometry width="160" relative="1" as="geometry">
            <mxPoint x="1020" y="1240" as="sourcePoint" />
            <mxPoint x="1180" y="1240" as="targetPoint" />
          </mxGeometry>
        </mxCell>
        <mxCell id="8vq4Dym6CmoTEIoGkgM0-100" value="Socket/Events" style="shape=umlLifeline;perimeter=lifelinePerimeter;whiteSpace=wrap;html=1;container=1;dropTarget=0;collapsible=0;recursiveResize=0;outlineConnect=0;portConstraint=eastwest;newEdgeStyle={&quot;curved&quot;:0,&quot;rounded&quot;:0};" vertex="1" parent="1">
          <mxGeometry x="1470" y="960" width="100" height="690" as="geometry" />
        </mxCell>
        <mxCell id="8vq4Dym6CmoTEIoGkgM0-101" value="" style="endArrow=open;endFill=1;endSize=12;html=1;rounded=0;" edge="1" parent="1" target="8vq4Dym6CmoTEIoGkgM0-100">
          <mxGeometry width="160" relative="1" as="geometry">
            <mxPoint x="430" y="1490" as="sourcePoint" />
            <mxPoint x="1309.5" y="1490" as="targetPoint" />
          </mxGeometry>
        </mxCell>
        <mxCell id="8vq4Dym6CmoTEIoGkgM0-102" value="Listen to delvery update events" style="text;html=1;align=center;verticalAlign=middle;resizable=0;points=[];autosize=1;strokeColor=none;fillColor=none;" vertex="1" parent="1">
          <mxGeometry x="770" y="1460" width="190" height="30" as="geometry" />
        </mxCell>
        <mxCell id="8vq4Dym6CmoTEIoGkgM0-103" value="Return delivery_updated event" style="html=1;verticalAlign=bottom;endArrow=open;dashed=1;endSize=8;curved=0;rounded=0;entryX=0.475;entryY=0.94;entryDx=0;entryDy=0;entryPerimeter=0;" edge="1" parent="1" source="8vq4Dym6CmoTEIoGkgM0-100">
          <mxGeometry relative="1" as="geometry">
            <mxPoint x="1316" y="1560" as="sourcePoint" />
            <mxPoint x="430" y="1560" as="targetPoint" />
          </mxGeometry>
        </mxCell>
      </root>
    </mxGraphModel>
  </diagram>
</mxfile>
